<svg width="1024" height="442" viewBox="0 0 1024 442" fill="none" xmlns="http://www.w3.org/2000/svg">
<rect x="8.5289" y="150.208" width="77.613" height="243.505" rx="6" fill="black"/>
<path d="M12.0149 428.272V410.817H19.0035C20.2876 410.817 21.3586 411.007 22.2166 411.388C23.0745 411.769 23.7194 412.297 24.1512 412.973C24.5831 413.644 24.799 414.417 24.799 415.292C24.799 415.973 24.6626 416.573 24.3899 417.09C24.1172 417.601 23.7422 418.022 23.2649 418.351C22.7933 418.675 22.2535 418.905 21.6456 419.042V419.212C22.3103 419.24 22.9325 419.428 23.512 419.775C24.0973 420.121 24.5717 420.607 24.9353 421.232C25.299 421.851 25.4808 422.59 25.4808 423.448C25.4808 424.374 25.2507 425.201 24.7905 425.928C24.3359 426.65 23.6626 427.221 22.7706 427.641C21.8785 428.061 20.7791 428.272 19.4723 428.272H12.0149ZM15.7052 425.255H18.7137C19.7422 425.255 20.4922 425.059 20.9637 424.667C21.4353 424.269 21.6711 423.74 21.6711 423.081C21.6711 422.598 21.5547 422.172 21.3217 421.803C21.0887 421.434 20.7564 421.144 20.3245 420.934C19.8984 420.723 19.3899 420.618 18.799 420.618H15.7052V425.255ZM15.7052 418.121H18.441C18.9467 418.121 19.3956 418.033 19.7876 417.857C20.1853 417.675 20.4978 417.419 20.7251 417.09C20.9581 416.76 21.0745 416.365 21.0745 415.905C21.0745 415.275 20.8501 414.766 20.4012 414.38C19.9581 413.993 19.3274 413.8 18.5092 413.8H15.7052V418.121ZM33.2487 428.527C31.9248 428.527 30.7799 428.246 29.814 427.684C28.8538 427.115 28.1123 426.326 27.5896 425.314C27.0668 424.297 26.8055 423.118 26.8055 421.777C26.8055 420.425 27.0668 419.243 27.5896 418.232C28.1123 417.215 28.8538 416.425 29.814 415.863C30.7799 415.294 31.9248 415.01 33.2487 415.01C34.5725 415.01 35.7146 415.294 36.6748 415.863C37.6407 416.425 38.385 417.215 38.9078 418.232C39.4305 419.243 39.6918 420.425 39.6918 421.777C39.6918 423.118 39.4305 424.297 38.9078 425.314C38.385 426.326 37.6407 427.115 36.6748 427.684C35.7146 428.246 34.5725 428.527 33.2487 428.527ZM33.2657 425.715C33.868 425.715 34.3708 425.544 34.7742 425.203C35.1776 424.857 35.4816 424.385 35.6862 423.789C35.8964 423.192 36.0015 422.513 36.0015 421.752C36.0015 420.99 35.8964 420.311 35.6862 419.715C35.4816 419.118 35.1776 418.647 34.7742 418.3C34.3708 417.953 33.868 417.78 33.2657 417.78C32.6578 417.78 32.1464 417.953 31.7316 418.3C31.3225 418.647 31.0129 419.118 30.8026 419.715C30.5981 420.311 30.4958 420.99 30.4958 421.752C30.4958 422.513 30.5981 423.192 30.8026 423.789C31.0129 424.385 31.3225 424.857 31.7316 425.203C32.1464 425.544 32.6578 425.715 33.2657 425.715ZM41.6408 428.272V410.817H45.2715V417.38H45.3823C45.5414 417.027 45.7715 416.669 46.0726 416.306C46.3795 415.936 46.7772 415.63 47.2658 415.385C47.7601 415.135 48.3738 415.01 49.1067 415.01C50.0613 415.01 50.942 415.26 51.7488 415.76C52.5556 416.255 53.2005 417.002 53.6834 418.002C54.1664 418.996 54.4079 420.243 54.4079 421.743C54.4079 423.203 54.1721 424.436 53.7005 425.442C53.2346 426.442 52.5982 427.201 51.7914 427.718C50.9903 428.229 50.0925 428.485 49.0982 428.485C48.3937 428.485 47.7942 428.368 47.2999 428.135C46.8113 427.902 46.4107 427.61 46.0982 427.257C45.7857 426.9 45.5471 426.539 45.3823 426.175H45.2204V428.272H41.6408ZM45.1948 421.726C45.1948 422.505 45.3028 423.184 45.5187 423.763C45.7346 424.343 46.0471 424.794 46.4562 425.118C46.8653 425.436 47.3624 425.596 47.9476 425.596C48.5385 425.596 49.0385 425.434 49.4476 425.11C49.8567 424.78 50.1664 424.326 50.3766 423.746C50.5925 423.161 50.7005 422.488 50.7005 421.726C50.7005 420.971 50.5954 420.306 50.3851 419.732C50.1749 419.158 49.8653 418.709 49.4562 418.385C49.0471 418.061 48.5442 417.9 47.9476 417.9C47.3567 417.9 46.8567 418.056 46.4476 418.368C46.0442 418.681 45.7346 419.124 45.5187 419.698C45.3028 420.272 45.1948 420.948 45.1948 421.726ZM56.4186 428.272V410.817H60.0493V417.38H60.1601C60.3192 417.027 60.5493 416.669 60.8505 416.306C61.1573 415.936 61.555 415.63 62.0436 415.385C62.538 415.135 63.1516 415.01 63.8845 415.01C64.8391 415.01 65.7198 415.26 66.5266 415.76C67.3334 416.255 67.9783 417.002 68.4612 418.002C68.9442 418.996 69.1857 420.243 69.1857 421.743C69.1857 423.203 68.9499 424.436 68.4783 425.442C68.0124 426.442 67.376 427.201 66.5692 427.718C65.7681 428.229 64.8703 428.485 63.876 428.485C63.1715 428.485 62.572 428.368 62.0777 428.135C61.5891 427.902 61.1885 427.61 60.876 427.257C60.5635 426.9 60.3249 426.539 60.1601 426.175H59.9982V428.272H56.4186ZM59.9726 421.726C59.9726 422.505 60.0806 423.184 60.2965 423.763C60.5124 424.343 60.8249 424.794 61.234 425.118C61.6431 425.436 62.1402 425.596 62.7255 425.596C63.3164 425.596 63.8164 425.434 64.2255 425.11C64.6345 424.78 64.9442 424.326 65.1544 423.746C65.3703 423.161 65.4783 422.488 65.4783 421.726C65.4783 420.971 65.3732 420.306 65.163 419.732C64.9527 419.158 64.6431 418.709 64.234 418.385C63.8249 418.061 63.322 417.9 62.7255 417.9C62.1345 417.9 61.6345 418.056 61.2255 418.368C60.822 418.681 60.5124 419.124 60.2965 419.698C60.0806 420.272 59.9726 420.948 59.9726 421.726ZM72.9479 433.181C72.4876 433.181 72.0558 433.144 71.6524 433.07C71.2547 433.002 70.9251 432.914 70.6638 432.806L71.482 430.096C71.9081 430.226 72.2916 430.297 72.6325 430.309C72.9791 430.32 73.2774 430.24 73.5274 430.07C73.7831 429.9 73.9905 429.61 74.1496 429.201L74.3626 428.647L69.6666 415.181H73.4848L76.195 424.794H76.3314L79.0672 415.181H82.9109L77.8229 429.686C77.5785 430.391 77.2462 431.005 76.8257 431.527C76.4109 432.056 75.8854 432.462 75.249 432.746C74.6126 433.036 73.8456 433.181 72.9479 433.181Z" fill="black"/>
<rect x="128.786" y="3.05176e-05" width="77.613" height="391.812" rx="6" fill="black"/>
<path d="M136.725 427.94V410.486H140.416V424.898H147.899V427.94H136.725ZM153.527 428.187C152.692 428.187 151.948 428.042 151.294 427.753C150.641 427.457 150.124 427.023 149.743 426.449C149.368 425.869 149.181 425.148 149.181 424.284C149.181 423.557 149.314 422.946 149.581 422.452C149.848 421.957 150.212 421.56 150.672 421.258C151.133 420.957 151.655 420.73 152.24 420.577C152.831 420.423 153.451 420.315 154.098 420.253C154.86 420.173 155.473 420.099 155.939 420.031C156.405 419.957 156.743 419.849 156.954 419.707C157.164 419.565 157.269 419.355 157.269 419.077V419.025C157.269 418.486 157.098 418.068 156.758 417.773C156.422 417.477 155.945 417.329 155.326 417.329C154.672 417.329 154.152 417.474 153.766 417.764C153.38 418.048 153.124 418.406 152.999 418.838L149.641 418.565C149.812 417.77 150.147 417.082 150.647 416.503C151.147 415.917 151.792 415.469 152.581 415.156C153.377 414.838 154.297 414.679 155.343 414.679C156.07 414.679 156.766 414.764 157.431 414.935C158.101 415.105 158.695 415.369 159.212 415.727C159.735 416.085 160.147 416.545 160.448 417.108C160.749 417.665 160.9 418.332 160.9 419.111V427.94H157.456V426.125H157.354C157.144 426.534 156.863 426.895 156.51 427.207C156.158 427.514 155.735 427.756 155.24 427.932C154.746 428.102 154.175 428.187 153.527 428.187ZM154.567 425.682C155.101 425.682 155.573 425.577 155.982 425.366C156.391 425.15 156.712 424.861 156.945 424.497C157.178 424.133 157.294 423.721 157.294 423.261V421.872C157.181 421.946 157.025 422.014 156.826 422.077C156.633 422.133 156.414 422.187 156.169 422.238C155.925 422.284 155.681 422.327 155.437 422.366C155.192 422.4 154.971 422.432 154.772 422.46C154.346 422.523 153.973 422.622 153.655 422.758C153.337 422.895 153.09 423.079 152.914 423.312C152.738 423.54 152.65 423.824 152.65 424.165C152.65 424.659 152.829 425.037 153.187 425.298C153.55 425.554 154.01 425.682 154.567 425.682ZM171.631 422.366V414.849H175.262V427.94H171.776V425.562H171.64C171.344 426.329 170.853 426.946 170.165 427.412C169.483 427.878 168.651 428.111 167.668 428.111C166.793 428.111 166.023 427.912 165.358 427.514C164.694 427.116 164.174 426.551 163.799 425.818C163.43 425.085 163.242 424.207 163.236 423.185V414.849H166.867V422.537C166.873 423.31 167.08 423.92 167.489 424.369C167.898 424.818 168.447 425.042 169.134 425.042C169.572 425.042 169.981 424.943 170.361 424.744C170.742 424.54 171.049 424.238 171.282 423.841C171.52 423.443 171.637 422.952 171.631 422.366ZM177.686 427.94V414.849H181.206V417.133H181.342C181.581 416.321 181.981 415.707 182.544 415.292C183.106 414.872 183.754 414.662 184.487 414.662C184.669 414.662 184.865 414.673 185.075 414.696C185.285 414.719 185.47 414.75 185.629 414.79V418.011C185.459 417.96 185.223 417.915 184.922 417.875C184.621 417.835 184.345 417.815 184.095 417.815C183.561 417.815 183.084 417.932 182.663 418.165C182.249 418.392 181.919 418.71 181.675 419.119C181.436 419.528 181.317 420 181.317 420.534V427.94H177.686ZM190.384 428.187C189.549 428.187 188.805 428.042 188.151 427.753C187.498 427.457 186.981 427.023 186.6 426.449C186.225 425.869 186.038 425.148 186.038 424.284C186.038 423.557 186.171 422.946 186.438 422.452C186.705 421.957 187.069 421.56 187.529 421.258C187.989 420.957 188.512 420.73 189.097 420.577C189.688 420.423 190.308 420.315 190.955 420.253C191.717 420.173 192.33 420.099 192.796 420.031C193.262 419.957 193.6 419.849 193.81 419.707C194.021 419.565 194.126 419.355 194.126 419.077V419.025C194.126 418.486 193.955 418.068 193.614 417.773C193.279 417.477 192.802 417.329 192.183 417.329C191.529 417.329 191.009 417.474 190.623 417.764C190.237 418.048 189.981 418.406 189.856 418.838L186.498 418.565C186.668 417.77 187.004 417.082 187.504 416.503C188.004 415.917 188.648 415.469 189.438 415.156C190.234 414.838 191.154 414.679 192.2 414.679C192.927 414.679 193.623 414.764 194.288 414.935C194.958 415.105 195.552 415.369 196.069 415.727C196.592 416.085 197.004 416.545 197.305 417.108C197.606 417.665 197.756 418.332 197.756 419.111V427.94H194.313V426.125H194.211C194.001 426.534 193.72 426.895 193.367 427.207C193.015 427.514 192.592 427.756 192.097 427.932C191.603 428.102 191.032 428.187 190.384 428.187ZM191.424 425.682C191.958 425.682 192.43 425.577 192.839 425.366C193.248 425.15 193.569 424.861 193.802 424.497C194.035 424.133 194.151 423.721 194.151 423.261V421.872C194.038 421.946 193.881 422.014 193.683 422.077C193.489 422.133 193.271 422.187 193.026 422.238C192.782 422.284 192.538 422.327 192.293 422.366C192.049 422.4 191.827 422.432 191.629 422.46C191.202 422.523 190.83 422.622 190.512 422.758C190.194 422.895 189.947 423.079 189.771 423.312C189.595 423.54 189.506 423.824 189.506 424.165C189.506 424.659 189.685 425.037 190.043 425.298C190.407 425.554 190.867 425.682 191.424 425.682Z" fill="black"/>
<rect x="255.014" y="215.377" width="77.613" height="176.434" rx="6" fill="black"/>
<path d="M268.52 416.596H264.787C264.719 416.113 264.58 415.685 264.37 415.31C264.159 414.929 263.889 414.605 263.56 414.338C263.23 414.071 262.85 413.866 262.418 413.724C261.992 413.582 261.529 413.511 261.029 413.511C260.125 413.511 259.338 413.736 258.668 414.185C257.997 414.628 257.478 415.275 257.108 416.128C256.739 416.974 256.554 418.003 256.554 419.213C256.554 420.457 256.739 421.503 257.108 422.349C257.483 423.196 258.006 423.835 258.676 424.267C259.347 424.699 260.122 424.915 261.003 424.915C261.497 424.915 261.955 424.849 262.375 424.719C262.801 424.588 263.179 424.398 263.509 424.148C263.838 423.892 264.111 423.582 264.327 423.219C264.549 422.855 264.702 422.44 264.787 421.974L268.52 421.991C268.424 422.792 268.182 423.565 267.796 424.31C267.415 425.048 266.901 425.71 266.253 426.295C265.611 426.875 264.844 427.335 263.952 427.676C263.066 428.011 262.063 428.179 260.943 428.179C259.387 428.179 257.995 427.827 256.767 427.122C255.546 426.417 254.58 425.398 253.87 424.062C253.165 422.727 252.813 421.111 252.813 419.213C252.813 417.31 253.171 415.69 253.887 414.355C254.603 413.02 255.574 412.003 256.801 411.304C258.029 410.599 259.409 410.247 260.943 410.247C261.955 410.247 262.892 410.389 263.756 410.673C264.625 410.957 265.395 411.372 266.066 411.917C266.736 412.457 267.282 413.119 267.702 413.903C268.128 414.687 268.401 415.585 268.52 416.596ZM276.533 428.196C275.209 428.196 274.064 427.915 273.098 427.352C272.138 426.784 271.397 425.994 270.874 424.983C270.351 423.966 270.09 422.787 270.09 421.446C270.09 420.094 270.351 418.912 270.874 417.9C271.397 416.883 272.138 416.094 273.098 415.531C274.064 414.963 275.209 414.679 276.533 414.679C277.857 414.679 278.999 414.963 279.959 415.531C280.925 416.094 281.669 416.883 282.192 417.9C282.715 418.912 282.976 420.094 282.976 421.446C282.976 422.787 282.715 423.966 282.192 424.983C281.669 425.994 280.925 426.784 279.959 427.352C278.999 427.915 277.857 428.196 276.533 428.196ZM276.55 425.383C277.152 425.383 277.655 425.213 278.059 424.872C278.462 424.525 278.766 424.054 278.971 423.457C279.181 422.861 279.286 422.182 279.286 421.42C279.286 420.659 279.181 419.98 278.971 419.383C278.766 418.787 278.462 418.315 278.059 417.969C277.655 417.622 277.152 417.449 276.55 417.449C275.942 417.449 275.431 417.622 275.016 417.969C274.607 418.315 274.297 418.787 274.087 419.383C273.882 419.98 273.78 420.659 273.78 421.42C273.78 422.182 273.882 422.861 274.087 423.457C274.297 424.054 274.607 424.525 275.016 424.872C275.431 425.213 275.942 425.383 276.55 425.383ZM290.772 428.196C289.448 428.196 288.303 427.915 287.337 427.352C286.377 426.784 285.635 425.994 285.113 424.983C284.59 423.966 284.329 422.787 284.329 421.446C284.329 420.094 284.59 418.912 285.113 417.9C285.635 416.883 286.377 416.094 287.337 415.531C288.303 414.963 289.448 414.679 290.772 414.679C292.096 414.679 293.238 414.963 294.198 415.531C295.164 416.094 295.908 416.883 296.431 417.9C296.954 418.912 297.215 420.094 297.215 421.446C297.215 422.787 296.954 423.966 296.431 424.983C295.908 425.994 295.164 426.784 294.198 427.352C293.238 427.915 292.096 428.196 290.772 428.196ZM290.789 425.383C291.391 425.383 291.894 425.213 292.297 424.872C292.701 424.525 293.005 424.054 293.209 423.457C293.42 422.861 293.525 422.182 293.525 421.42C293.525 420.659 293.42 419.98 293.209 419.383C293.005 418.787 292.701 418.315 292.297 417.969C291.894 417.622 291.391 417.449 290.789 417.449C290.181 417.449 289.67 417.622 289.255 417.969C288.846 418.315 288.536 418.787 288.326 419.383C288.121 419.98 288.019 420.659 288.019 421.42C288.019 422.182 288.121 422.861 288.326 423.457C288.536 424.054 288.846 424.525 289.255 424.872C289.67 425.213 290.181 425.383 290.789 425.383ZM299.096 432.849V414.849H302.675V417.048H302.837C302.996 416.696 303.226 416.338 303.528 415.974C303.834 415.605 304.232 415.298 304.721 415.054C305.215 414.804 305.829 414.679 306.562 414.679C307.516 414.679 308.397 414.929 309.204 415.429C310.011 415.923 310.655 416.67 311.138 417.67C311.621 418.665 311.863 419.912 311.863 421.412C311.863 422.872 311.627 424.105 311.155 425.111C310.69 426.111 310.053 426.869 309.246 427.386C308.445 427.898 307.547 428.153 306.553 428.153C305.849 428.153 305.249 428.037 304.755 427.804C304.266 427.571 303.866 427.278 303.553 426.926C303.241 426.568 303.002 426.207 302.837 425.844H302.726V432.849H299.096ZM302.65 421.395C302.65 422.173 302.758 422.852 302.974 423.432C303.19 424.011 303.502 424.463 303.911 424.787C304.32 425.105 304.817 425.264 305.403 425.264C305.993 425.264 306.493 425.102 306.903 424.778C307.312 424.449 307.621 423.994 307.832 423.415C308.047 422.829 308.155 422.156 308.155 421.395C308.155 420.639 308.05 419.974 307.84 419.4C307.63 418.827 307.32 418.378 306.911 418.054C306.502 417.73 305.999 417.568 305.403 417.568C304.812 417.568 304.312 417.724 303.903 418.037C303.499 418.349 303.19 418.792 302.974 419.366C302.758 419.94 302.65 420.616 302.65 421.395ZM319.769 428.196C318.423 428.196 317.263 427.923 316.292 427.378C315.326 426.827 314.582 426.048 314.059 425.042C313.536 424.031 313.275 422.835 313.275 421.454C313.275 420.108 313.536 418.926 314.059 417.909C314.582 416.892 315.317 416.099 316.266 415.531C317.221 414.963 318.34 414.679 319.624 414.679C320.488 414.679 321.292 414.818 322.036 415.096C322.786 415.369 323.44 415.781 323.996 416.332C324.559 416.883 324.996 417.577 325.309 418.412C325.621 419.241 325.778 420.213 325.778 421.327V422.324H314.724V420.074H322.36C322.36 419.551 322.246 419.088 322.019 418.685C321.792 418.281 321.477 417.966 321.073 417.738C320.675 417.506 320.212 417.389 319.684 417.389C319.133 417.389 318.644 417.517 318.218 417.773C317.798 418.023 317.468 418.361 317.229 418.787C316.991 419.207 316.869 419.676 316.863 420.193V422.332C316.863 422.98 316.982 423.54 317.221 424.011C317.465 424.483 317.809 424.846 318.252 425.102C318.695 425.358 319.221 425.486 319.829 425.486C320.232 425.486 320.602 425.429 320.937 425.315C321.272 425.202 321.559 425.031 321.798 424.804C322.036 424.577 322.218 424.298 322.343 423.969L325.701 424.19C325.531 424.997 325.181 425.702 324.653 426.304C324.13 426.9 323.454 427.366 322.624 427.702C321.8 428.031 320.849 428.196 319.769 428.196ZM327.667 427.94V414.849H331.187V417.133H331.323C331.562 416.321 331.962 415.707 332.525 415.292C333.087 414.872 333.735 414.662 334.468 414.662C334.65 414.662 334.846 414.673 335.056 414.696C335.266 414.719 335.451 414.75 335.61 414.79V418.011C335.44 417.96 335.204 417.915 334.903 417.875C334.602 417.835 334.326 417.815 334.076 417.815C333.542 417.815 333.065 417.932 332.644 418.165C332.23 418.392 331.9 418.71 331.656 419.119C331.417 419.528 331.298 420 331.298 420.534V427.94H327.667Z" fill="black"/>
<rect x="394.888" y="44.506" width="77.613" height="347.306" rx="6" fill="black"/>
<path d="M396.717 427.94H392.762L398.788 410.486H403.544L409.561 427.94H405.606L401.234 414.474H401.098L396.717 427.94ZM396.47 421.079H405.811V423.96H396.47V421.079ZM419.508 422.366V414.849H423.139V427.94H419.653V425.562H419.517C419.221 426.329 418.73 426.946 418.042 427.412C417.36 427.878 416.528 428.111 415.545 428.111C414.67 428.111 413.9 427.912 413.235 427.514C412.571 427.116 412.051 426.551 411.676 425.818C411.306 425.085 411.119 424.207 411.113 423.185V414.849H414.744V422.537C414.75 423.31 414.957 423.92 415.366 424.369C415.775 424.818 416.323 425.042 417.011 425.042C417.448 425.042 417.858 424.943 418.238 424.744C418.619 424.54 418.926 424.238 419.159 423.841C419.397 423.443 419.514 422.952 419.508 422.366ZM430.387 428.153C429.392 428.153 428.492 427.898 427.685 427.386C426.884 426.869 426.248 426.111 425.776 425.111C425.31 424.105 425.077 422.872 425.077 421.412C425.077 419.912 425.319 418.665 425.802 417.67C426.285 416.67 426.927 415.923 427.728 415.429C428.535 414.929 429.418 414.679 430.378 414.679C431.111 414.679 431.722 414.804 432.211 415.054C432.705 415.298 433.103 415.605 433.404 415.974C433.711 416.338 433.944 416.696 434.103 417.048H434.214V410.486H437.836V427.94H434.256V425.844H434.103C433.932 426.207 433.691 426.568 433.378 426.926C433.071 427.278 432.671 427.571 432.177 427.804C431.688 428.037 431.091 428.153 430.387 428.153ZM431.537 425.264C432.123 425.264 432.617 425.105 433.02 424.787C433.429 424.463 433.742 424.011 433.958 423.432C434.179 422.852 434.29 422.173 434.29 421.395C434.29 420.616 434.182 419.94 433.966 419.366C433.75 418.792 433.438 418.349 433.029 418.037C432.62 417.724 432.123 417.568 431.537 417.568C430.941 417.568 430.438 417.73 430.029 418.054C429.62 418.378 429.31 418.827 429.1 419.4C428.89 419.974 428.785 420.639 428.785 421.395C428.785 422.156 428.89 422.829 429.1 423.415C429.316 423.994 429.625 424.449 430.029 424.778C430.438 425.102 430.941 425.264 431.537 425.264ZM440.341 427.94V414.849H443.861V417.133H443.997C444.236 416.321 444.636 415.707 445.199 415.292C445.761 414.872 446.409 414.662 447.142 414.662C447.324 414.662 447.52 414.673 447.73 414.696C447.94 414.719 448.125 414.75 448.284 414.79V418.011C448.113 417.96 447.878 417.915 447.577 417.875C447.275 417.835 447 417.815 446.75 417.815C446.216 417.815 445.738 417.932 445.318 418.165C444.903 418.392 444.574 418.71 444.329 419.119C444.091 419.528 443.971 420 443.971 420.534V427.94H440.341ZM455.038 428.196C453.691 428.196 452.532 427.923 451.56 427.378C450.594 426.827 449.85 426.048 449.327 425.042C448.805 424.031 448.543 422.835 448.543 421.454C448.543 420.108 448.805 418.926 449.327 417.909C449.85 416.892 450.586 416.099 451.535 415.531C452.489 414.963 453.609 414.679 454.893 414.679C455.756 414.679 456.56 414.818 457.305 415.096C458.055 415.369 458.708 415.781 459.265 416.332C459.827 416.883 460.265 417.577 460.577 418.412C460.89 419.241 461.046 420.213 461.046 421.327V422.324H449.992V420.074H457.629C457.629 419.551 457.515 419.088 457.288 418.685C457.06 418.281 456.745 417.966 456.342 417.738C455.944 417.506 455.481 417.389 454.952 417.389C454.401 417.389 453.913 417.517 453.486 417.773C453.066 418.023 452.736 418.361 452.498 418.787C452.259 419.207 452.137 419.676 452.131 420.193V422.332C452.131 422.98 452.251 423.54 452.489 424.011C452.734 424.483 453.077 424.846 453.521 425.102C453.964 425.358 454.489 425.486 455.097 425.486C455.501 425.486 455.87 425.429 456.205 425.315C456.54 425.202 456.827 425.031 457.066 424.804C457.305 424.577 457.486 424.298 457.611 423.969L460.969 424.19C460.799 424.997 460.45 425.702 459.921 426.304C459.398 426.9 458.722 427.366 457.893 427.702C457.069 428.031 456.117 428.196 455.038 428.196ZM464.825 432.849C464.365 432.849 463.933 432.812 463.53 432.738C463.132 432.67 462.803 432.582 462.541 432.474L463.359 429.764C463.786 429.895 464.169 429.966 464.51 429.977C464.857 429.988 465.155 429.909 465.405 429.738C465.661 429.568 465.868 429.278 466.027 428.869L466.24 428.315L461.544 414.849H465.362L468.073 424.463H468.209L470.945 414.849H474.788L469.7 429.355C469.456 430.06 469.124 430.673 468.703 431.196C468.288 431.724 467.763 432.131 467.127 432.415C466.49 432.704 465.723 432.849 464.825 432.849Z" fill="black"/>
<rect x="712.529" y="150" width="77.613" height="243.505" rx="6" fill="black"/>
<path d="M716.015 428.064V410.609H723.004C724.288 410.609 725.359 410.8 726.217 411.18C727.075 411.561 727.719 412.09 728.151 412.766C728.583 413.436 728.799 414.209 728.799 415.084C728.799 415.766 728.663 416.365 728.39 416.882C728.117 417.394 727.742 417.814 727.265 418.144C726.793 418.467 726.254 418.697 725.646 418.834V419.004C726.31 419.033 726.932 419.22 727.512 419.567C728.097 419.913 728.572 420.399 728.935 421.024C729.299 421.644 729.481 422.382 729.481 423.24C729.481 424.166 729.251 424.993 728.79 425.72C728.336 426.442 727.663 427.013 726.771 427.433C725.879 427.854 724.779 428.064 723.472 428.064H716.015ZM719.705 425.047H722.714C723.742 425.047 724.492 424.851 724.964 424.459C725.435 424.061 725.671 423.533 725.671 422.874C725.671 422.391 725.555 421.965 725.322 421.595C725.089 421.226 724.756 420.936 724.325 420.726C723.898 420.516 723.39 420.411 722.799 420.411H719.705V425.047ZM719.705 417.913H722.441C722.947 417.913 723.396 417.825 723.788 417.649C724.185 417.467 724.498 417.212 724.725 416.882C724.958 416.553 725.075 416.158 725.075 415.697C725.075 415.067 724.85 414.558 724.401 414.172C723.958 413.786 723.327 413.592 722.509 413.592H719.705V417.913ZM737.249 428.32C735.925 428.32 734.78 428.038 733.814 427.476C732.854 426.908 732.112 426.118 731.59 425.107C731.067 424.09 730.805 422.911 730.805 421.57C730.805 420.217 731.067 419.036 731.59 418.024C732.112 417.007 732.854 416.217 733.814 415.655C734.78 415.087 735.925 414.803 737.249 414.803C738.573 414.803 739.715 415.087 740.675 415.655C741.641 416.217 742.385 417.007 742.908 418.024C743.43 419.036 743.692 420.217 743.692 421.57C743.692 422.911 743.43 424.09 742.908 425.107C742.385 426.118 741.641 426.908 740.675 427.476C739.715 428.038 738.573 428.32 737.249 428.32ZM737.266 425.507C737.868 425.507 738.371 425.337 738.774 424.996C739.178 424.649 739.482 424.178 739.686 423.581C739.896 422.984 740.002 422.305 740.002 421.544C740.002 420.783 739.896 420.104 739.686 419.507C739.482 418.911 739.178 418.439 738.774 418.092C738.371 417.746 737.868 417.572 737.266 417.572C736.658 417.572 736.146 417.746 735.732 418.092C735.323 418.439 735.013 418.911 734.803 419.507C734.598 420.104 734.496 420.783 734.496 421.544C734.496 422.305 734.598 422.984 734.803 423.581C735.013 424.178 735.323 424.649 735.732 424.996C736.146 425.337 736.658 425.507 737.266 425.507ZM745.641 428.064V410.609H749.272V417.172H749.382C749.541 416.82 749.772 416.462 750.073 416.098C750.379 415.729 750.777 415.422 751.266 415.178C751.76 414.928 752.374 414.803 753.107 414.803C754.061 414.803 754.942 415.053 755.749 415.553C756.556 416.047 757.2 416.794 757.683 417.794C758.166 418.788 758.408 420.036 758.408 421.536C758.408 422.996 758.172 424.229 757.7 425.234C757.235 426.234 756.598 426.993 755.791 427.51C754.99 428.021 754.093 428.277 753.098 428.277C752.394 428.277 751.794 428.161 751.3 427.928C750.811 427.695 750.411 427.402 750.098 427.05C749.786 426.692 749.547 426.331 749.382 425.967H749.22V428.064H745.641ZM749.195 421.519C749.195 422.297 749.303 422.976 749.519 423.555C749.735 424.135 750.047 424.587 750.456 424.911C750.865 425.229 751.362 425.388 751.948 425.388C752.539 425.388 753.039 425.226 753.448 424.902C753.857 424.572 754.166 424.118 754.377 423.538C754.593 422.953 754.7 422.28 754.7 421.519C754.7 420.763 754.595 420.098 754.385 419.524C754.175 418.95 753.865 418.501 753.456 418.178C753.047 417.854 752.544 417.692 751.948 417.692C751.357 417.692 750.857 417.848 750.448 418.161C750.044 418.473 749.735 418.916 749.519 419.49C749.303 420.064 749.195 420.74 749.195 421.519ZM760.419 428.064V410.609H764.049V417.172H764.16C764.319 416.82 764.549 416.462 764.85 416.098C765.157 415.729 765.555 415.422 766.044 415.178C766.538 414.928 767.152 414.803 767.885 414.803C768.839 414.803 769.72 415.053 770.527 415.553C771.333 416.047 771.978 416.794 772.461 417.794C772.944 418.788 773.186 420.036 773.186 421.536C773.186 422.996 772.95 424.229 772.478 425.234C772.012 426.234 771.376 426.993 770.569 427.51C769.768 428.021 768.87 428.277 767.876 428.277C767.171 428.277 766.572 428.161 766.078 427.928C765.589 427.695 765.189 427.402 764.876 427.05C764.564 426.692 764.325 426.331 764.16 425.967H763.998V428.064H760.419ZM763.973 421.519C763.973 422.297 764.081 422.976 764.296 423.555C764.512 424.135 764.825 424.587 765.234 424.911C765.643 425.229 766.14 425.388 766.725 425.388C767.316 425.388 767.816 425.226 768.225 424.902C768.635 424.572 768.944 424.118 769.154 423.538C769.37 422.953 769.478 422.28 769.478 421.519C769.478 420.763 769.373 420.098 769.163 419.524C768.953 418.95 768.643 418.501 768.234 418.178C767.825 417.854 767.322 417.692 766.725 417.692C766.135 417.692 765.635 417.848 765.225 418.161C764.822 418.473 764.512 418.916 764.296 419.49C764.081 420.064 763.973 420.74 763.973 421.519ZM776.948 432.973C776.488 432.973 776.056 432.936 775.652 432.862C775.255 432.794 774.925 432.706 774.664 432.598L775.482 429.888C775.908 430.019 776.292 430.09 776.633 430.101C776.979 430.112 777.277 430.033 777.527 429.862C777.783 429.692 777.99 429.402 778.15 428.993L778.363 428.439L773.667 414.973H777.485L780.195 424.587H780.331L783.067 414.973H786.911L781.823 429.479C781.579 430.183 781.246 430.797 780.826 431.32C780.411 431.848 779.885 432.254 779.249 432.538C778.613 432.828 777.846 432.973 776.948 432.973Z" fill="black"/>
<rect x="944.559" width="77.613" height="391.812" rx="6" fill="black"/>
<path d="M952.498 427.94V410.486H956.188V424.898H963.671V427.94H952.498ZM969.3 428.187C968.465 428.187 967.72 428.042 967.067 427.753C966.413 427.457 965.896 427.023 965.516 426.449C965.141 425.869 964.953 425.148 964.953 424.284C964.953 423.557 965.087 422.946 965.354 422.452C965.621 421.957 965.984 421.56 966.445 421.258C966.905 420.957 967.428 420.73 968.013 420.577C968.604 420.423 969.223 420.315 969.871 420.253C970.632 420.173 971.246 420.099 971.712 420.031C972.178 419.957 972.516 419.849 972.726 419.707C972.936 419.565 973.041 419.355 973.041 419.077V419.025C973.041 418.486 972.871 418.068 972.53 417.773C972.195 417.477 971.717 417.329 971.098 417.329C970.445 417.329 969.925 417.474 969.538 417.764C969.152 418.048 968.896 418.406 968.771 418.838L965.413 418.565C965.584 417.77 965.919 417.082 966.419 416.503C966.919 415.917 967.564 415.469 968.354 415.156C969.149 414.838 970.07 414.679 971.115 414.679C971.842 414.679 972.538 414.764 973.203 414.935C973.874 415.105 974.467 415.369 974.984 415.727C975.507 416.085 975.919 416.545 976.22 417.108C976.521 417.665 976.672 418.332 976.672 419.111V427.94H973.229V426.125H973.126C972.916 426.534 972.635 426.895 972.283 427.207C971.93 427.514 971.507 427.756 971.013 427.932C970.518 428.102 969.947 428.187 969.3 428.187ZM970.34 425.682C970.874 425.682 971.345 425.577 971.754 425.366C972.163 425.15 972.484 424.861 972.717 424.497C972.95 424.133 973.067 423.721 973.067 423.261V421.872C972.953 421.946 972.797 422.014 972.598 422.077C972.405 422.133 972.186 422.187 971.942 422.238C971.697 422.284 971.453 422.327 971.209 422.366C970.965 422.4 970.743 422.432 970.544 422.46C970.118 422.523 969.746 422.622 969.428 422.758C969.109 422.895 968.862 423.079 968.686 423.312C968.51 423.54 968.422 423.824 968.422 424.165C968.422 424.659 968.601 425.037 968.959 425.298C969.322 425.554 969.783 425.682 970.34 425.682ZM987.404 422.366V414.849H991.034V427.94H987.548V425.562H987.412C987.117 426.329 986.625 426.946 985.938 427.412C985.256 427.878 984.423 428.111 983.44 428.111C982.565 428.111 981.796 427.912 981.131 427.514C980.466 427.116 979.946 426.551 979.571 425.818C979.202 425.085 979.014 424.207 979.009 423.185V414.849H982.639V422.537C982.645 423.31 982.852 423.92 983.262 424.369C983.671 424.818 984.219 425.042 984.906 425.042C985.344 425.042 985.753 424.943 986.134 424.744C986.514 424.54 986.821 424.238 987.054 423.841C987.293 423.443 987.409 422.952 987.404 422.366ZM993.458 427.94V414.849H996.978V417.133H997.115C997.353 416.321 997.754 415.707 998.316 415.292C998.879 414.872 999.527 414.662 1000.26 414.662C1000.44 414.662 1000.64 414.673 1000.85 414.696C1001.06 414.719 1001.24 414.75 1001.4 414.79V418.011C1001.23 417.96 1001 417.915 1000.69 417.875C1000.39 417.835 1000.12 417.815 999.867 417.815C999.333 417.815 998.856 417.932 998.436 418.165C998.021 418.392 997.691 418.71 997.447 419.119C997.208 419.528 997.089 420 997.089 420.534V427.94H993.458ZM1006.16 428.187C1005.32 428.187 1004.58 428.042 1003.92 427.753C1003.27 427.457 1002.75 427.023 1002.37 426.449C1002 425.869 1001.81 425.148 1001.81 424.284C1001.81 423.557 1001.94 422.946 1002.21 422.452C1002.48 421.957 1002.84 421.56 1003.3 421.258C1003.76 420.957 1004.28 420.73 1004.87 420.577C1005.46 420.423 1006.08 420.315 1006.73 420.253C1007.49 420.173 1008.1 420.099 1008.57 420.031C1009.03 419.957 1009.37 419.849 1009.58 419.707C1009.79 419.565 1009.9 419.355 1009.9 419.077V419.025C1009.9 418.486 1009.73 418.068 1009.39 417.773C1009.05 417.477 1008.57 417.329 1007.95 417.329C1007.3 417.329 1006.78 417.474 1006.4 417.764C1006.01 418.048 1005.75 418.406 1005.63 418.838L1002.27 418.565C1002.44 417.77 1002.78 417.082 1003.28 416.503C1003.78 415.917 1004.42 415.469 1005.21 415.156C1006.01 414.838 1006.93 414.679 1007.97 414.679C1008.7 414.679 1009.4 414.764 1010.06 414.935C1010.73 415.105 1011.32 415.369 1011.84 415.727C1012.36 416.085 1012.78 416.545 1013.08 417.108C1013.38 417.665 1013.53 418.332 1013.53 419.111V427.94H1010.09V426.125H1009.98C1009.77 426.534 1009.49 426.895 1009.14 427.207C1008.79 427.514 1008.36 427.756 1007.87 427.932C1007.38 428.102 1006.8 428.187 1006.16 428.187ZM1007.2 425.682C1007.73 425.682 1008.2 425.577 1008.61 425.366C1009.02 425.15 1009.34 424.861 1009.57 424.497C1009.81 424.133 1009.92 423.721 1009.92 423.261V421.872C1009.81 421.946 1009.65 422.014 1009.45 422.077C1009.26 422.133 1009.04 422.187 1008.8 422.238C1008.55 422.284 1008.31 422.327 1008.07 422.366C1007.82 422.4 1007.6 422.432 1007.4 422.46C1006.97 422.523 1006.6 422.622 1006.28 422.758C1005.97 422.895 1005.72 423.079 1005.54 423.312C1005.37 423.54 1005.28 423.824 1005.28 424.165C1005.28 424.659 1005.46 425.037 1005.82 425.298C1006.18 425.554 1006.64 425.682 1007.2 425.682Z" fill="black"/>
<rect x="592.352" y="215" width="77.613" height="176.434" rx="6" fill="black"/>
<path d="M605.858 416.219H602.125C602.057 415.736 601.918 415.307 601.708 414.932C601.497 414.552 601.227 414.228 600.898 413.961C600.568 413.694 600.188 413.489 599.756 413.347C599.33 413.205 598.867 413.134 598.367 413.134C597.463 413.134 596.676 413.358 596.006 413.807C595.335 414.25 594.816 414.898 594.446 415.75C594.077 416.597 593.892 417.625 593.892 418.836C593.892 420.08 594.077 421.125 594.446 421.972C594.821 422.819 595.344 423.458 596.014 423.89C596.685 424.322 597.46 424.537 598.341 424.537C598.835 424.537 599.293 424.472 599.713 424.341C600.139 424.211 600.517 424.02 600.847 423.77C601.176 423.515 601.449 423.205 601.665 422.841C601.887 422.478 602.04 422.063 602.125 421.597L605.858 421.614C605.762 422.415 605.52 423.188 605.134 423.932C604.753 424.671 604.239 425.333 603.591 425.918C602.949 426.498 602.182 426.958 601.29 427.299C600.404 427.634 599.401 427.802 598.281 427.802C596.725 427.802 595.333 427.449 594.105 426.745C592.884 426.04 591.918 425.02 591.208 423.685C590.503 422.35 590.151 420.733 590.151 418.836C590.151 416.932 590.509 415.313 591.225 413.978C591.941 412.643 592.912 411.625 594.139 410.927C595.367 410.222 596.747 409.87 598.281 409.87C599.293 409.87 600.23 410.012 601.094 410.296C601.963 410.58 602.733 410.995 603.404 411.54C604.074 412.08 604.62 412.742 605.04 413.526C605.466 414.31 605.739 415.208 605.858 416.219ZM613.871 427.819C612.547 427.819 611.402 427.537 610.436 426.975C609.476 426.407 608.735 425.617 608.212 424.606C607.689 423.589 607.428 422.41 607.428 421.069C607.428 419.716 607.689 418.535 608.212 417.523C608.735 416.506 609.476 415.716 610.436 415.154C611.402 414.586 612.547 414.302 613.871 414.302C615.195 414.302 616.337 414.586 617.297 415.154C618.263 415.716 619.007 416.506 619.53 417.523C620.053 418.535 620.314 419.716 620.314 421.069C620.314 422.41 620.053 423.589 619.53 424.606C619.007 425.617 618.263 426.407 617.297 426.975C616.337 427.537 615.195 427.819 613.871 427.819ZM613.888 425.006C614.49 425.006 614.993 424.836 615.397 424.495C615.8 424.148 616.104 423.677 616.309 423.08C616.519 422.483 616.624 421.804 616.624 421.043C616.624 420.282 616.519 419.603 616.309 419.006C616.104 418.41 615.8 417.938 615.397 417.591C614.993 417.245 614.49 417.072 613.888 417.072C613.28 417.072 612.769 417.245 612.354 417.591C611.945 417.938 611.635 418.41 611.425 419.006C611.22 419.603 611.118 420.282 611.118 421.043C611.118 421.804 611.22 422.483 611.425 423.08C611.635 423.677 611.945 424.148 612.354 424.495C612.769 424.836 613.28 425.006 613.888 425.006ZM628.11 427.819C626.786 427.819 625.641 427.537 624.675 426.975C623.715 426.407 622.973 425.617 622.451 424.606C621.928 423.589 621.667 422.41 621.667 421.069C621.667 419.716 621.928 418.535 622.451 417.523C622.973 416.506 623.715 415.716 624.675 415.154C625.641 414.586 626.786 414.302 628.11 414.302C629.434 414.302 630.576 414.586 631.536 415.154C632.502 415.716 633.246 416.506 633.769 417.523C634.292 418.535 634.553 419.716 634.553 421.069C634.553 422.41 634.292 423.589 633.769 424.606C633.246 425.617 632.502 426.407 631.536 426.975C630.576 427.537 629.434 427.819 628.11 427.819ZM628.127 425.006C628.729 425.006 629.232 424.836 629.635 424.495C630.039 424.148 630.343 423.677 630.547 423.08C630.758 422.483 630.863 421.804 630.863 421.043C630.863 420.282 630.758 419.603 630.547 419.006C630.343 418.41 630.039 417.938 629.635 417.591C629.232 417.245 628.729 417.072 628.127 417.072C627.519 417.072 627.008 417.245 626.593 417.591C626.184 417.938 625.874 418.41 625.664 419.006C625.459 419.603 625.357 420.282 625.357 421.043C625.357 421.804 625.459 422.483 625.664 423.08C625.874 423.677 626.184 424.148 626.593 424.495C627.008 424.836 627.519 425.006 628.127 425.006ZM636.434 432.472V414.472H640.013V416.671H640.175C640.334 416.319 640.564 415.961 640.866 415.597C641.172 415.228 641.57 414.921 642.059 414.677C642.553 414.427 643.167 414.302 643.9 414.302C644.854 414.302 645.735 414.552 646.542 415.052C647.349 415.546 647.993 416.293 648.476 417.293C648.959 418.287 649.201 419.535 649.201 421.035C649.201 422.495 648.965 423.728 648.493 424.733C648.028 425.733 647.391 426.492 646.584 427.009C645.783 427.52 644.885 427.776 643.891 427.776C643.187 427.776 642.587 427.66 642.093 427.427C641.604 427.194 641.204 426.901 640.891 426.549C640.579 426.191 640.34 425.83 640.175 425.466H640.064V432.472H636.434ZM639.988 421.018C639.988 421.796 640.096 422.475 640.312 423.054C640.528 423.634 640.84 424.086 641.249 424.41C641.658 424.728 642.155 424.887 642.741 424.887C643.331 424.887 643.831 424.725 644.241 424.401C644.65 424.072 644.959 423.617 645.17 423.037C645.385 422.452 645.493 421.779 645.493 421.018C645.493 420.262 645.388 419.597 645.178 419.023C644.968 418.449 644.658 418 644.249 417.677C643.84 417.353 643.337 417.191 642.741 417.191C642.15 417.191 641.65 417.347 641.241 417.66C640.837 417.972 640.528 418.415 640.312 418.989C640.096 419.563 639.988 420.239 639.988 421.018ZM657.107 427.819C655.761 427.819 654.601 427.546 653.63 427C652.664 426.449 651.92 425.671 651.397 424.665C650.874 423.654 650.613 422.458 650.613 421.077C650.613 419.731 650.874 418.549 651.397 417.532C651.92 416.515 652.655 415.722 653.604 415.154C654.559 414.586 655.678 414.302 656.962 414.302C657.826 414.302 658.63 414.441 659.374 414.719C660.124 414.992 660.778 415.404 661.334 415.955C661.897 416.506 662.334 417.199 662.647 418.035C662.959 418.864 663.116 419.836 663.116 420.949V421.947H652.062V419.697H659.698C659.698 419.174 659.584 418.711 659.357 418.307C659.13 417.904 658.815 417.589 658.411 417.361C658.013 417.128 657.55 417.012 657.022 417.012C656.471 417.012 655.982 417.14 655.556 417.395C655.136 417.645 654.806 417.983 654.567 418.41C654.329 418.83 654.207 419.299 654.201 419.816V421.955C654.201 422.603 654.32 423.162 654.559 423.634C654.803 424.106 655.147 424.469 655.59 424.725C656.033 424.981 656.559 425.108 657.167 425.108C657.57 425.108 657.94 425.052 658.275 424.938C658.61 424.824 658.897 424.654 659.136 424.427C659.374 424.199 659.556 423.921 659.681 423.591L663.039 423.813C662.869 424.62 662.519 425.324 661.991 425.927C661.468 426.523 660.792 426.989 659.962 427.324C659.138 427.654 658.187 427.819 657.107 427.819ZM665.005 427.563V414.472H668.525V416.756H668.661C668.9 415.944 669.3 415.33 669.863 414.915C670.425 414.495 671.073 414.285 671.806 414.285C671.988 414.285 672.184 414.296 672.394 414.319C672.604 414.341 672.789 414.373 672.948 414.412V417.634C672.778 417.583 672.542 417.537 672.241 417.498C671.94 417.458 671.664 417.438 671.414 417.438C670.88 417.438 670.403 417.554 669.982 417.787C669.568 418.015 669.238 418.333 668.994 418.742C668.755 419.151 668.636 419.623 668.636 420.157V427.563H665.005Z" fill="black"/>
<rect x="831.499" y="44" width="77.613" height="347.306" rx="6" fill="black"/>
<path d="M833.328 427.434H829.374L835.399 409.98H840.155L846.172 427.434H842.217L837.845 413.968H837.709L833.328 427.434ZM833.081 420.573H842.422V423.454H833.081V420.573ZM856.119 421.86V414.343H859.75V427.434H856.264V425.056H856.128C855.832 425.823 855.341 426.44 854.653 426.906C853.972 427.372 853.139 427.605 852.156 427.605C851.281 427.605 850.511 427.406 849.847 427.008C849.182 426.61 848.662 426.045 848.287 425.312C847.918 424.579 847.73 423.701 847.724 422.679V414.343H851.355V422.031C851.361 422.804 851.568 423.414 851.977 423.863C852.386 424.312 852.935 424.536 853.622 424.536C854.06 424.536 854.469 424.437 854.849 424.238C855.23 424.034 855.537 423.732 855.77 423.335C856.009 422.937 856.125 422.446 856.119 421.86ZM866.998 427.647C866.004 427.647 865.103 427.392 864.296 426.88C863.495 426.363 862.859 425.605 862.387 424.605C861.921 423.599 861.688 422.366 861.688 420.906C861.688 419.406 861.93 418.159 862.413 417.164C862.896 416.164 863.538 415.417 864.339 414.923C865.146 414.423 866.029 414.173 866.989 414.173C867.722 414.173 868.333 414.298 868.822 414.548C869.316 414.792 869.714 415.099 870.015 415.468C870.322 415.832 870.555 416.19 870.714 416.542H870.825V409.98H874.447V427.434H870.867V425.338H870.714C870.543 425.701 870.302 426.062 869.989 426.42C869.683 426.772 869.282 427.065 868.788 427.298C868.299 427.531 867.703 427.647 866.998 427.647ZM868.149 424.758C868.734 424.758 869.228 424.599 869.632 424.281C870.041 423.957 870.353 423.505 870.569 422.926C870.791 422.346 870.901 421.667 870.901 420.889C870.901 420.11 870.793 419.434 870.578 418.86C870.362 418.286 870.049 417.843 869.64 417.531C869.231 417.218 868.734 417.062 868.149 417.062C867.552 417.062 867.049 417.224 866.64 417.548C866.231 417.872 865.921 418.321 865.711 418.894C865.501 419.468 865.396 420.133 865.396 420.889C865.396 421.65 865.501 422.323 865.711 422.909C865.927 423.488 866.237 423.943 866.64 424.272C867.049 424.596 867.552 424.758 868.149 424.758ZM876.952 427.434V414.343H880.472V416.627H880.608C880.847 415.815 881.247 415.201 881.81 414.786C882.372 414.366 883.02 414.156 883.753 414.156C883.935 414.156 884.131 414.167 884.341 414.19C884.551 414.213 884.736 414.244 884.895 414.284V417.505C884.725 417.454 884.489 417.409 884.188 417.369C883.887 417.329 883.611 417.309 883.361 417.309C882.827 417.309 882.35 417.426 881.929 417.659C881.514 417.886 881.185 418.204 880.941 418.613C880.702 419.022 880.583 419.494 880.583 420.028V427.434H876.952ZM891.649 427.69C890.302 427.69 889.143 427.417 888.172 426.872C887.206 426.321 886.461 425.542 885.939 424.536C885.416 423.525 885.154 422.329 885.154 420.948C885.154 419.602 885.416 418.42 885.939 417.403C886.461 416.386 887.197 415.593 888.146 415.025C889.101 414.457 890.22 414.173 891.504 414.173C892.368 414.173 893.172 414.312 893.916 414.59C894.666 414.863 895.319 415.275 895.876 415.826C896.439 416.377 896.876 417.071 897.189 417.906C897.501 418.735 897.657 419.707 897.657 420.821V421.818H886.603V419.568H894.24C894.24 419.045 894.126 418.582 893.899 418.179C893.672 417.775 893.356 417.46 892.953 417.232C892.555 417 892.092 416.883 891.564 416.883C891.012 416.883 890.524 417.011 890.098 417.267C889.677 417.517 889.348 417.855 889.109 418.281C888.87 418.701 888.748 419.17 888.743 419.687V421.826C888.743 422.474 888.862 423.034 889.101 423.505C889.345 423.977 889.689 424.34 890.132 424.596C890.575 424.852 891.101 424.98 891.708 424.98C892.112 424.98 892.481 424.923 892.816 424.809C893.152 424.696 893.439 424.525 893.677 424.298C893.916 424.071 894.098 423.792 894.223 423.463L897.581 423.684C897.41 424.491 897.061 425.196 896.532 425.798C896.01 426.394 895.333 426.86 894.504 427.196C893.68 427.525 892.728 427.69 891.649 427.69ZM901.437 432.343C900.976 432.343 900.545 432.306 900.141 432.232C899.743 432.164 899.414 432.076 899.152 431.968L899.971 429.258C900.397 429.389 900.78 429.46 901.121 429.471C901.468 429.482 901.766 429.403 902.016 429.232C902.272 429.062 902.479 428.772 902.638 428.363L902.851 427.809L898.155 414.343H901.974L904.684 423.957H904.82L907.556 414.343H911.4L906.312 428.849C906.067 429.554 905.735 430.167 905.314 430.69C904.9 431.218 904.374 431.625 903.738 431.909C903.101 432.198 902.334 432.343 901.437 432.343Z" fill="black"/>
</svg>
